<svg width="16" height="16" viewBox="0 0 16 16" fill="none" xmlns="http://www.w3.org/2000/svg">
<path d="M1.20874 8.99999H12.3787L7.49874 13.88C7.10874 14.27 7.10874 14.91 7.49874 15.3C7.88874 15.69 8.51874 15.69 8.90874 15.3L15.4987 8.70999C15.8887 8.31999 15.8887 7.68999 15.4987 7.29999L8.91874 0.699994C8.73191 0.512742 8.47826 0.407509 8.21374 0.407509C7.94922 0.407509 7.69557 0.512742 7.50874 0.699994C7.11874 1.08999 7.11874 1.71999 7.50874 2.10999L12.3787 6.99999H1.20874C0.65874 6.99999 0.20874 7.44999 0.20874 7.99999C0.20874 8.54999 0.65874 8.99999 1.20874 8.99999Z" fill="#F5F5F5"/>
</svg>
